<svg width="200" height="200" viewBox="0 0 200 200" fill="none" xmlns="http://www.w3.org/2000/svg">
<mask id="path-1-inside-1" fill="white">
<path d="M200 100C200 80.2219 194.135 60.8879 183.147 44.443C172.159 27.9981 156.541 15.1808 138.268 7.61205C119.996 0.0432834 99.8891 -1.93705 80.491 1.92147C61.0929 5.77999 43.2746 15.3041 29.2893 29.2893C15.3041 43.2746 5.77999 61.0929 1.92147 80.491C-1.93705 99.8891 0.0432836 119.996 7.61205 138.268C15.1808 156.541 27.9981 172.159 44.443 183.147C60.8879 194.135 80.2219 200 100 200V100H200Z"/>
</mask>
<path d="M200 100C200 80.2219 194.135 60.8879 183.147 44.443C172.159 27.9981 156.541 15.1808 138.268 7.61205C119.996 0.0432834 99.8891 -1.93705 80.491 1.92147C61.0929 5.77999 43.2746 15.3041 29.2893 29.2893C15.3041 43.2746 5.77999 61.0929 1.92147 80.491C-1.93705 99.8891 0.0432836 119.996 7.61205 138.268C15.1808 156.541 27.9981 172.159 44.443 183.147C60.8879 194.135 80.2219 200 100 200V100H200Z" stroke="#56CCF2" stroke-width="20" mask="url(#path-1-inside-1)"/>
<path d="M135.578 150H66.7422V138.258L100.844 101.062C105.766 95.5781 109.258 91.0078 111.32 87.3516C113.43 83.6484 114.484 79.9453 114.484 76.2422C114.484 71.3672 113.102 67.4297 110.336 64.4297C107.617 61.4297 103.938 59.9297 99.2969 59.9297C93.7656 59.9297 89.4766 61.6172 86.4297 64.9922C83.3828 68.3672 81.8594 72.9844 81.8594 78.8438H64.7734C64.7734 72.6094 66.1797 67.0078 68.9922 62.0391C71.8516 57.0234 75.9062 53.1328 81.1562 50.3672C86.4531 47.6016 92.5469 46.2188 99.4375 46.2188C109.375 46.2188 117.203 48.7266 122.922 53.7422C128.688 58.7109 131.57 65.6016 131.57 74.4141C131.57 79.5234 130.117 84.8906 127.211 90.5156C124.352 96.0938 119.641 102.445 113.078 109.57L88.0469 136.359H135.578V150Z" fill="#FC0D1B" fill-opacity="0.85"/>
</svg>
