<svg width="200" height="200" viewBox="0 0 200 200" fill="none" xmlns="http://www.w3.org/2000/svg">
<mask id="path-1-inside-1" fill="white">
<path d="M200 100C200 80.2219 194.135 60.8879 183.147 44.443C172.159 27.9981 156.541 15.1808 138.268 7.61205C119.996 0.0432834 99.8891 -1.93705 80.491 1.92147C61.0929 5.77999 43.2746 15.3041 29.2893 29.2893C15.3041 43.2746 5.77999 61.0929 1.92147 80.491C-1.93705 99.8891 0.0432836 119.996 7.61205 138.268C15.1808 156.541 27.9981 172.159 44.443 183.147C60.8879 194.135 80.2219 200 100 200V100H200Z"/>
</mask>
<path d="M200 100C200 80.2219 194.135 60.8879 183.147 44.443C172.159 27.9981 156.541 15.1808 138.268 7.61205C119.996 0.0432834 99.8891 -1.93705 80.491 1.92147C61.0929 5.77999 43.2746 15.3041 29.2893 29.2893C15.3041 43.2746 5.77999 61.0929 1.92147 80.491C-1.93705 99.8891 0.0432836 119.996 7.61205 138.268C15.1808 156.541 27.9981 172.159 44.443 183.147C60.8879 194.135 80.2219 200 100 200V100H200Z" stroke="#56CCF2" stroke-width="20" mask="url(#path-1-inside-1)"/>
<path d="M113.008 150H95.9922V67.8047L70.8906 76.3828V61.9688L110.828 47.2734H113.008V150Z" fill="#FC0D1B" fill-opacity="0.85"/>
</svg>
