<svg width="200" height="200" viewBox="0 0 200 200" fill="none" xmlns="http://www.w3.org/2000/svg">
<mask id="path-1-inside-1" fill="white">
<path d="M200 100C200 80.2219 194.135 60.8879 183.147 44.443C172.159 27.9981 156.541 15.1808 138.268 7.61205C119.996 0.0432834 99.8891 -1.93705 80.491 1.92147C61.0929 5.77999 43.2746 15.3041 29.2893 29.2893C15.3041 43.2746 5.77999 61.0929 1.92147 80.491C-1.93705 99.8891 0.0432836 119.996 7.61205 138.268C15.1808 156.541 27.9981 172.159 44.443 183.147C60.8879 194.135 80.2219 200 100 200V100H200Z"/>
</mask>
<path d="M200 100C200 80.2219 194.135 60.8879 183.147 44.443C172.159 27.9981 156.541 15.1808 138.268 7.61205C119.996 0.0432834 99.8891 -1.93705 80.491 1.92147C61.0929 5.77999 43.2746 15.3041 29.2893 29.2893C15.3041 43.2746 5.77999 61.0929 1.92147 80.491C-1.93705 99.8891 0.0432836 119.996 7.61205 138.268C15.1808 156.541 27.9981 172.159 44.443 183.147C60.8879 194.135 80.2219 200 100 200V100H200Z" stroke="#56CCF2" stroke-width="20" mask="url(#path-1-inside-1)"/>
<path d="M86.5 91.0078H96.9062C102.156 90.9609 106.305 89.6016 109.352 86.9297C112.445 84.2578 113.992 80.3906 113.992 75.3281C113.992 70.4531 112.703 66.6797 110.125 64.0078C107.594 61.2891 103.703 59.9297 98.4531 59.9297C93.8594 59.9297 90.0859 61.2656 87.1328 63.9375C84.1797 66.5625 82.7031 70.0078 82.7031 74.2734H65.6172C65.6172 69.0234 67 64.2422 69.7656 59.9297C72.5781 55.6172 76.4688 52.2656 81.4375 49.875C86.4531 47.4375 92.0547 46.2188 98.2422 46.2188C108.461 46.2188 116.477 48.7969 122.289 53.9531C128.148 59.0625 131.078 66.1875 131.078 75.3281C131.078 79.9219 129.602 84.2578 126.648 88.3359C123.742 92.3672 119.969 95.4141 115.328 97.4766C120.953 99.3984 125.219 102.422 128.125 106.547C131.078 110.672 132.555 115.594 132.555 121.312C132.555 130.5 129.391 137.812 123.062 143.25C116.781 148.688 108.508 151.406 98.2422 151.406C88.3984 151.406 80.3359 148.781 74.0547 143.531C67.7734 138.281 64.6328 131.297 64.6328 122.578H81.7188C81.7188 127.078 83.2188 130.734 86.2188 133.547C89.2656 136.359 93.3438 137.766 98.4531 137.766C103.75 137.766 107.922 136.359 110.969 133.547C114.016 130.734 115.539 126.656 115.539 121.312C115.539 115.922 113.945 111.773 110.758 108.867C107.57 105.961 102.836 104.508 96.5547 104.508H86.5V91.0078Z" fill="#FC0D1B" fill-opacity="0.85"/>
</svg>
