<svg width="500" height="145" viewBox="0 0 500 145" fill="none" xmlns="http://www.w3.org/2000/svg">
<path d="M21.552 95H8.592V25.592H21.552V95ZM93.678 95H88.35C87.23 95 86.35 94.84 85.71 94.52C85.07 94.168 84.59 93.48 84.27 92.456L83.214 88.952C81.966 90.072 80.734 91.064 79.518 91.928C78.334 92.76 77.102 93.464 75.822 94.04C74.542 94.616 73.182 95.048 71.742 95.336C70.302 95.624 68.702 95.768 66.942 95.768C64.862 95.768 62.942 95.496 61.182 94.952C59.422 94.376 57.902 93.528 56.622 92.408C55.374 91.288 54.398 89.896 53.694 88.232C52.99 86.568 52.638 84.632 52.638 82.424C52.638 80.568 53.118 78.744 54.078 76.952C55.07 75.128 56.702 73.496 58.974 72.056C61.246 70.584 64.27 69.368 68.046 68.408C71.822 67.448 76.51 66.904 82.11 66.776V63.896C82.11 60.6 81.406 58.168 79.998 56.6C78.622 55 76.606 54.2 73.95 54.2C72.03 54.2 70.43 54.424 69.15 54.872C67.87 55.32 66.75 55.832 65.79 56.408C64.862 56.952 63.998 57.448 63.198 57.896C62.398 58.344 61.518 58.568 60.558 58.568C59.758 58.568 59.07 58.36 58.494 57.944C57.918 57.528 57.454 57.016 57.102 56.408L54.942 52.616C60.606 47.432 67.438 44.84 75.438 44.84C78.318 44.84 80.878 45.32 83.118 46.28C85.39 47.208 87.31 48.52 88.878 50.216C90.446 51.88 91.63 53.88 92.43 56.216C93.262 58.552 93.678 61.112 93.678 63.896V95ZM70.638 87.608C71.854 87.608 72.974 87.496 73.998 87.272C75.022 87.048 75.982 86.712 76.878 86.264C77.806 85.816 78.686 85.272 79.518 84.632C80.382 83.96 81.246 83.176 82.11 82.28V73.976C78.654 74.136 75.758 74.44 73.422 74.888C71.118 75.304 69.262 75.848 67.854 76.52C66.446 77.192 65.438 77.976 64.83 78.872C64.254 79.768 63.966 80.744 63.966 81.8C63.966 83.88 64.574 85.368 65.79 86.264C67.038 87.16 68.654 87.608 70.638 87.608ZM105.336 95V45.752H112.584C114.12 45.752 115.128 46.472 115.608 47.912L116.376 51.56C117.24 50.6 118.136 49.72 119.064 48.92C120.024 48.12 121.032 47.432 122.088 46.856C123.176 46.28 124.328 45.832 125.544 45.512C126.792 45.16 128.152 44.984 129.624 44.984C132.728 44.984 135.272 45.832 137.256 47.528C139.272 49.192 140.776 51.416 141.768 54.2C142.536 52.568 143.496 51.176 144.648 50.024C145.8 48.84 147.064 47.88 148.44 47.144C149.816 46.408 151.272 45.864 152.808 45.512C154.376 45.16 155.944 44.984 157.512 44.984C160.232 44.984 162.648 45.4 164.76 46.232C166.872 47.064 168.648 48.28 170.088 49.88C171.528 51.48 172.616 53.432 173.352 55.736C174.12 58.04 174.504 60.68 174.504 63.656V95H162.648V63.656C162.648 60.52 161.96 58.168 160.584 56.6C159.208 55 157.192 54.2 154.536 54.2C153.32 54.2 152.184 54.408 151.128 54.824C150.104 55.24 149.192 55.848 148.392 56.648C147.624 57.416 147.016 58.392 146.568 59.576C146.12 60.76 145.896 62.12 145.896 63.656V95H133.992V63.656C133.992 60.36 133.32 57.96 131.976 56.456C130.664 54.952 128.712 54.2 126.12 54.2C124.424 54.2 122.824 54.632 121.32 55.496C119.848 56.328 118.472 57.48 117.192 58.952V95H105.336ZM242.583 38.216C242.231 38.92 241.815 39.416 241.335 39.704C240.887 39.992 240.343 40.136 239.703 40.136C239.063 40.136 238.343 39.896 237.543 39.416C236.743 38.904 235.799 38.344 234.711 37.736C233.623 37.128 232.343 36.584 230.871 36.104C229.431 35.592 227.719 35.336 225.735 35.336C223.943 35.336 222.375 35.56 221.031 36.008C219.719 36.424 218.599 37.016 217.671 37.784C216.775 38.552 216.103 39.48 215.655 40.568C215.207 41.624 214.983 42.792 214.983 44.072C214.983 45.704 215.431 47.064 216.327 48.152C217.255 49.24 218.471 50.168 219.975 50.936C221.479 51.704 223.191 52.392 225.111 53C227.031 53.608 228.983 54.264 230.967 54.968C232.983 55.64 234.951 56.44 236.871 57.368C238.791 58.264 240.503 59.416 242.007 60.824C243.511 62.2 244.711 63.896 245.607 65.912C246.535 67.928 246.999 70.376 246.999 73.256C246.999 76.392 246.455 79.336 245.367 82.088C244.311 84.808 242.743 87.192 240.663 89.24C238.615 91.256 236.103 92.856 233.127 94.04C230.151 95.192 226.743 95.768 222.903 95.768C220.695 95.768 218.519 95.544 216.375 95.096C214.231 94.68 212.167 94.072 210.183 93.272C208.231 92.472 206.391 91.512 204.663 90.392C202.967 89.272 201.447 88.024 200.103 86.648L203.847 80.456C204.199 80.008 204.615 79.64 205.095 79.352C205.607 79.032 206.167 78.872 206.775 78.872C207.575 78.872 208.439 79.208 209.367 79.88C210.295 80.52 211.383 81.24 212.631 82.04C213.911 82.84 215.399 83.576 217.095 84.248C218.823 84.888 220.887 85.208 223.287 85.208C226.967 85.208 229.815 84.344 231.831 82.616C233.847 80.856 234.855 78.344 234.855 75.08C234.855 73.256 234.391 71.768 233.463 70.616C232.567 69.464 231.367 68.504 229.863 67.736C228.359 66.936 226.647 66.264 224.727 65.72C222.807 65.176 220.855 64.584 218.871 63.944C216.887 63.304 214.935 62.536 213.015 61.64C211.095 60.744 209.383 59.576 207.879 58.136C206.375 56.696 205.159 54.904 204.231 52.76C203.335 50.584 202.887 47.912 202.887 44.744C202.887 42.216 203.383 39.752 204.375 37.352C205.399 34.952 206.871 32.824 208.791 30.968C210.743 29.112 213.127 27.624 215.943 26.504C218.759 25.384 221.975 24.824 225.591 24.824C229.687 24.824 233.463 25.464 236.919 26.744C240.375 28.024 243.319 29.816 245.751 32.12L242.583 38.216ZM294.772 95H289.444C288.324 95 287.444 94.84 286.804 94.52C286.164 94.168 285.684 93.48 285.364 92.456L284.308 88.952C283.06 90.072 281.828 91.064 280.612 91.928C279.428 92.76 278.196 93.464 276.916 94.04C275.636 94.616 274.276 95.048 272.836 95.336C271.396 95.624 269.796 95.768 268.036 95.768C265.956 95.768 264.036 95.496 262.276 94.952C260.516 94.376 258.996 93.528 257.716 92.408C256.468 91.288 255.492 89.896 254.788 88.232C254.084 86.568 253.732 84.632 253.732 82.424C253.732 80.568 254.212 78.744 255.172 76.952C256.164 75.128 257.796 73.496 260.068 72.056C262.34 70.584 265.364 69.368 269.14 68.408C272.916 67.448 277.604 66.904 283.204 66.776V63.896C283.204 60.6 282.5 58.168 281.092 56.6C279.716 55 277.7 54.2 275.044 54.2C273.124 54.2 271.524 54.424 270.244 54.872C268.964 55.32 267.844 55.832 266.884 56.408C265.956 56.952 265.092 57.448 264.292 57.896C263.492 58.344 262.612 58.568 261.652 58.568C260.852 58.568 260.164 58.36 259.588 57.944C259.012 57.528 258.548 57.016 258.196 56.408L256.036 52.616C261.7 47.432 268.532 44.84 276.532 44.84C279.412 44.84 281.972 45.32 284.212 46.28C286.484 47.208 288.404 48.52 289.972 50.216C291.54 51.88 292.724 53.88 293.524 56.216C294.356 58.552 294.772 61.112 294.772 63.896V95ZM271.732 87.608C272.948 87.608 274.068 87.496 275.092 87.272C276.116 87.048 277.076 86.712 277.972 86.264C278.9 85.816 279.78 85.272 280.612 84.632C281.476 83.96 282.34 83.176 283.204 82.28V73.976C279.748 74.136 276.852 74.44 274.516 74.888C272.212 75.304 270.356 75.848 268.948 76.52C267.54 77.192 266.532 77.976 265.924 78.872C265.348 79.768 265.06 80.744 265.06 81.8C265.06 83.88 265.668 85.368 266.884 86.264C268.132 87.16 269.748 87.608 271.732 87.608ZM306.43 95V45.752H313.678C315.214 45.752 316.222 46.472 316.702 47.912L317.518 51.8C318.51 50.776 319.55 49.848 320.638 49.016C321.758 48.184 322.926 47.464 324.142 46.856C325.39 46.248 326.718 45.784 328.126 45.464C329.534 45.144 331.07 44.984 332.734 44.984C335.422 44.984 337.806 45.448 339.886 46.376C341.966 47.272 343.694 48.552 345.07 50.216C346.478 51.848 347.534 53.816 348.238 56.12C348.974 58.392 349.342 60.904 349.342 63.656V95H337.486V63.656C337.486 60.648 336.782 58.328 335.374 56.696C333.998 55.032 331.918 54.2 329.134 54.2C327.086 54.2 325.166 54.664 323.374 55.592C321.582 56.52 319.886 57.784 318.286 59.384V95H306.43ZM390.224 55.352C389.904 55.864 389.568 56.232 389.216 56.456C388.864 56.648 388.416 56.744 387.872 56.744C387.296 56.744 386.672 56.584 386 56.264C385.36 55.944 384.608 55.592 383.744 55.208C382.88 54.792 381.888 54.424 380.768 54.104C379.68 53.784 378.384 53.624 376.88 53.624C374.544 53.624 372.704 54.12 371.36 55.112C370.016 56.104 369.344 57.4 369.344 59C369.344 60.056 369.68 60.952 370.352 61.688C371.056 62.392 371.968 63.016 373.088 63.56C374.24 64.104 375.536 64.6 376.976 65.048C378.416 65.464 379.888 65.928 381.392 66.44C382.896 66.952 384.368 67.544 385.808 68.216C387.248 68.856 388.528 69.688 389.648 70.712C390.8 71.704 391.712 72.904 392.384 74.312C393.088 75.72 393.44 77.416 393.44 79.4C393.44 81.768 393.008 83.96 392.144 85.976C391.28 87.96 390.016 89.688 388.352 91.16C386.688 92.6 384.624 93.736 382.16 94.568C379.728 95.368 376.928 95.768 373.76 95.768C372.064 95.768 370.4 95.608 368.768 95.288C367.168 95 365.616 94.584 364.112 94.04C362.64 93.496 361.264 92.856 359.984 92.12C358.736 91.384 357.632 90.584 356.672 89.72L359.408 85.208C359.76 84.664 360.176 84.248 360.656 83.96C361.136 83.672 361.744 83.528 362.48 83.528C363.216 83.528 363.904 83.736 364.544 84.152C365.216 84.568 365.984 85.016 366.848 85.496C367.712 85.976 368.72 86.424 369.872 86.84C371.056 87.256 372.544 87.464 374.336 87.464C375.744 87.464 376.944 87.304 377.936 86.984C378.96 86.632 379.792 86.184 380.432 85.64C381.104 85.096 381.584 84.472 381.872 83.768C382.192 83.032 382.352 82.28 382.352 81.512C382.352 80.36 382 79.416 381.296 78.68C380.624 77.944 379.712 77.304 378.56 76.76C377.44 76.216 376.144 75.736 374.672 75.32C373.232 74.872 371.744 74.392 370.208 73.88C368.704 73.368 367.216 72.776 365.744 72.104C364.304 71.4 363.008 70.52 361.856 69.464C360.736 68.408 359.824 67.112 359.12 65.576C358.448 64.04 358.112 62.184 358.112 60.008C358.112 57.992 358.512 56.072 359.312 54.248C360.112 52.424 361.28 50.84 362.816 49.496C364.384 48.12 366.32 47.032 368.624 46.232C370.96 45.4 373.648 44.984 376.688 44.984C380.08 44.984 383.168 45.544 385.952 46.664C388.736 47.784 391.056 49.256 392.912 51.08L390.224 55.352Z" fill="black"/>
<path d="M3.60938 136.781H12.0352V138H2.15625V120.938H3.60938V136.781ZM22.4883 138C22.3477 137.602 22.2578 137.012 22.2188 136.23C21.7266 136.871 21.0977 137.367 20.332 137.719C19.5742 138.062 18.7695 138.234 17.918 138.234C16.6992 138.234 15.7109 137.895 14.9531 137.215C14.2031 136.535 13.8281 135.676 13.8281 134.637C13.8281 133.402 14.3398 132.426 15.3633 131.707C16.3945 130.988 17.8281 130.629 19.6641 130.629H22.207V129.188C22.207 128.281 21.9258 127.57 21.3633 127.055C20.8086 126.531 19.9961 126.27 18.9258 126.27C17.9492 126.27 17.1406 126.52 16.5 127.02C15.8594 127.52 15.5391 128.121 15.5391 128.824L14.1328 128.812C14.1328 127.805 14.6016 126.934 15.5391 126.199C16.4766 125.457 17.6289 125.086 18.9961 125.086C20.4102 125.086 21.5234 125.441 22.3359 126.152C23.1562 126.855 23.5781 127.84 23.6016 129.105V135.105C23.6016 136.332 23.7305 137.25 23.9883 137.859V138H22.4883ZM18.082 136.992C19.0195 136.992 19.8555 136.766 20.5898 136.312C21.332 135.859 21.8711 135.254 22.207 134.496V131.707H19.6992C18.3008 131.723 17.207 131.98 16.418 132.48C15.6289 132.973 15.2344 133.652 15.2344 134.52C15.2344 135.23 15.4961 135.82 16.0195 136.289C16.5508 136.758 17.2383 136.992 18.082 136.992ZM29.5312 122.074V125.32H32.1562V126.469H29.5312V134.918C29.5312 135.621 29.6562 136.145 29.9062 136.488C30.1641 136.832 30.5898 137.004 31.1836 137.004C31.418 137.004 31.7969 136.965 32.3203 136.887L32.3789 138.035C32.0117 138.168 31.5117 138.234 30.8789 138.234C29.918 138.234 29.2188 137.957 28.7812 137.402C28.3438 136.84 28.125 136.016 28.125 134.93V126.469H25.793V125.32H28.125V122.074H29.5312ZM34.0547 131.473C34.0547 130.254 34.2891 129.156 34.7578 128.18C35.2344 127.203 35.9023 126.445 36.7617 125.906C37.6289 125.359 38.6094 125.086 39.7031 125.086C41.3906 125.086 42.7578 125.68 43.8047 126.867C44.8516 128.047 45.375 129.613 45.375 131.566V131.859C45.375 133.086 45.1367 134.191 44.6602 135.176C44.1914 136.152 43.5273 136.906 42.668 137.438C41.8086 137.969 40.8281 138.234 39.7266 138.234C38.0469 138.234 36.6797 137.645 35.625 136.465C34.5781 135.277 34.0547 133.707 34.0547 131.754V131.473ZM35.4609 131.859C35.4609 133.375 35.8516 134.621 36.6328 135.598C37.4219 136.566 38.4531 137.051 39.7266 137.051C40.9922 137.051 42.0156 136.566 42.7969 135.598C43.5859 134.621 43.9805 133.336 43.9805 131.742V131.473C43.9805 130.504 43.8008 129.617 43.4414 128.812C43.082 128.008 42.5781 127.387 41.9297 126.949C41.2812 126.504 40.5391 126.281 39.7031 126.281C38.4531 126.281 37.4336 126.773 36.6445 127.758C35.8555 128.734 35.4609 130.016 35.4609 131.602V131.859Z" fill="black"/>
<circle cx="206" cy="85" r="12.5" stroke="#FC0D1B" stroke-opacity="0.85" stroke-width="3"/>
<circle cx="89" cy="92" r="12.5" stroke="#FC0D1B" stroke-opacity="0.85" stroke-width="3"/>
<circle cx="312" cy="49" r="12.5" stroke="#FC0D1B" stroke-opacity="0.85" stroke-width="3"/>
</svg>
