<svg width="500" height="188" viewBox="0 0 500 188" fill="none" xmlns="http://www.w3.org/2000/svg">
<path d="M26.332 106.598C26.332 103.699 25.9766 100.555 25.2656 97.1641C24.5547 93.7734 23.7891 90.3008 22.9688 86.7461C22.1484 83.1914 21.3555 79.6641 20.5898 76.1641C19.8242 72.6094 19.4141 69.2734 19.3594 66.1562H1.06641C1.06641 65.7188 1.06641 65.0898 1.06641 64.2695C1.06641 63.4492 1.14844 62.6289 1.3125 61.8086C1.47656 60.9336 1.72266 60.168 2.05078 59.5117C2.37891 58.8008 2.87109 58.3633 3.52734 58.1992H48.6445C48.5898 59.9492 48.2344 61.2891 47.5781 62.2188C46.9219 63.1484 46.0469 63.8594 44.9531 64.3516C43.9141 64.8438 42.7383 65.1719 41.4258 65.3359C40.1133 65.4453 38.8008 65.582 37.4883 65.7461C36.1758 65.9102 34.8906 66.1289 33.6328 66.4023C32.375 66.6211 31.2812 67.0859 30.3516 67.7969C29.4766 68.5078 28.793 69.4922 28.3008 70.75C27.8633 71.9531 27.7539 73.5938 27.9727 75.6719C27.9727 76.8203 28.0547 78.3516 28.2188 80.2656C28.3828 82.125 28.6562 84.1484 29.0391 86.3359C29.4219 88.5234 29.9141 90.7383 30.5156 92.9805C31.1172 95.168 31.8555 97.1914 32.7305 99.0508C33.6602 100.855 34.6992 102.332 35.8477 103.48C37.0508 104.574 38.4453 105.121 40.0312 105.121C41.125 105.23 42.5195 105.258 44.2148 105.203C45.9648 105.094 47.7148 105.012 49.4648 104.957C51.2148 104.902 52.8555 104.93 54.3867 105.039C55.9727 105.148 57.1211 105.477 57.832 106.023C58.543 106.57 58.707 107.391 58.3242 108.484C57.9414 109.523 56.7383 110.945 54.7148 112.75C51.2148 114.062 47.6602 114.965 44.0508 115.457C40.4961 115.895 36.9141 116.141 33.3047 116.195C29.6953 116.195 26.0859 116.141 22.4766 116.031C18.8672 115.867 15.2852 115.785 11.7305 115.785C9.70703 113.324 8.50391 111.438 8.12109 110.125C7.73828 108.812 7.875 107.91 8.53125 107.418C9.24219 106.871 10.3359 106.598 11.8125 106.598C13.3438 106.543 14.9844 106.598 16.7344 106.762C18.4844 106.871 20.2344 106.98 21.9844 107.09C23.7344 107.145 25.1836 106.98 26.332 106.598ZM137.977 107.418C135.898 108.84 134.094 110.125 132.562 111.273C131.086 112.367 129.637 113.297 128.215 114.062C126.793 114.828 125.262 115.402 123.621 115.785C122.035 116.168 120.066 116.359 117.715 116.359C112.629 116.359 108.855 115.02 106.395 112.34C103.934 109.605 102.703 105.559 102.703 100.199C102.703 98.1211 102.977 95.9609 103.523 93.7188C104.07 91.4766 104.863 89.2617 105.902 87.0742C106.996 84.832 108.281 82.7266 109.758 80.7578C111.234 78.7344 112.902 76.957 114.762 75.4258C116.621 73.8945 118.59 72.6914 120.668 71.8164C122.801 70.8867 125.043 70.4219 127.395 70.4219C131.332 70.8047 134.422 71.7891 136.664 73.375C138.906 74.9062 140.602 76.9023 141.75 79.3633C142.898 81.7695 143.691 84.4766 144.129 87.4844C144.566 90.4375 144.895 93.5 145.113 96.6719C145.387 99.8438 145.715 103.016 146.098 106.188C146.48 109.359 147.273 112.285 148.477 114.965C147.766 116.77 147.082 118.027 146.426 118.738C145.824 119.504 145.141 119.641 144.375 119.148C143.609 118.656 142.707 117.453 141.668 115.539C140.684 113.625 139.453 110.918 137.977 107.418ZM109.676 100.363C109.676 103.48 110.25 105.777 111.398 107.254C112.602 108.676 114.707 109.387 117.715 109.387C119.957 109.387 122.09 109.004 124.113 108.238C126.191 107.418 127.996 106.324 129.527 104.957C131.059 103.535 132.289 101.84 133.219 99.8711C134.148 97.9023 134.613 95.7148 134.613 93.3086C134.613 92.3242 134.641 90.957 134.695 89.207C134.75 87.4023 134.641 85.625 134.367 83.875C134.094 82.125 133.574 80.6211 132.809 79.3633C132.043 78.0508 130.895 77.3945 129.363 77.3945C126.52 77.3945 123.895 78.1328 121.488 79.6094C119.082 81.0312 117.004 82.8633 115.254 85.1055C113.504 87.3477 112.137 89.8359 111.152 92.5703C110.168 95.25 109.676 97.8477 109.676 100.363ZM151.84 83.5469C151.84 82.1797 152.059 81.1133 152.496 80.3477C152.988 79.582 154 79.1992 155.531 79.1992C155.695 79.1992 155.996 79.2266 156.434 79.2812C156.926 79.2812 157.227 79.2812 157.336 79.2812C157.719 80.9766 158.102 82.8359 158.484 84.8594C158.922 86.8281 159.414 88.8242 159.961 90.8477C160.508 92.8711 161.109 94.8672 161.766 96.8359C162.477 98.8047 163.324 100.582 164.309 102.168C165.293 101.129 166.004 99.8984 166.441 98.4766C166.879 97.0547 167.207 95.6328 167.426 94.2109C167.645 92.7344 167.836 91.3398 168 90.0273C168.219 88.6602 168.629 87.5117 169.23 86.582C169.832 85.5977 170.707 84.8867 171.855 84.4492C173.059 84.0117 174.699 84.0117 176.777 84.4492C179.074 84.4492 180.906 84.8867 182.273 85.7617C183.641 86.582 184.816 87.6484 185.801 88.9609C186.84 90.2188 187.824 91.5859 188.754 93.0625C189.738 94.4844 190.969 95.7695 192.445 96.918C192.773 96.207 193.184 95.332 193.676 94.293C194.168 93.1992 194.77 92.0781 195.48 90.9297C196.246 89.7266 197.039 88.5508 197.859 87.4023C198.734 86.1992 199.637 85.1328 200.566 84.2031C201.496 83.2188 202.453 82.4258 203.438 81.8242C204.422 81.168 205.379 80.8398 206.309 80.8398C208.551 80.8398 210.492 81.5508 212.133 82.9727C213.773 84.3398 215.168 86.0898 216.316 88.2227C217.52 90.3008 218.504 92.6523 219.27 95.2773C220.035 97.8477 220.637 100.336 221.074 102.742C221.512 105.148 221.812 107.363 221.977 109.387C222.195 111.355 222.305 112.777 222.305 113.652C222.305 114.363 222.141 114.91 221.812 115.293C221.484 115.676 221.074 115.977 220.582 116.195C220.09 116.359 219.543 116.469 218.941 116.523C218.395 116.578 217.875 116.605 217.383 116.605C217.273 116.605 217.109 116.605 216.891 116.605C216.672 116.551 216.426 116.496 216.152 116.441C215.934 116.387 215.633 116.305 215.25 116.195L209.918 91.668C209.918 91.5039 209.699 91.2031 209.262 90.7656C208.824 90.2734 208.496 89.9727 208.277 89.8633C208.113 89.8633 207.977 89.8359 207.867 89.7812C207.758 89.7812 207.676 89.7812 207.621 89.7812C207.566 89.7266 207.512 89.6992 207.457 89.6992C206.309 89.6992 205.215 90.1641 204.176 91.0938C203.191 92.0234 202.262 93.1992 201.387 94.6211C200.512 96.043 199.691 97.6289 198.926 99.3789C198.16 101.129 197.477 102.879 196.875 104.629C196.273 106.324 195.727 107.91 195.234 109.387C194.797 110.809 194.441 111.902 194.168 112.668C193.949 112.777 193.512 112.887 192.855 112.996C192.199 113.051 191.762 113.078 191.543 113.078C190.012 113.078 188.836 112.559 188.016 111.52C187.195 110.426 186.512 109.086 185.965 107.5C185.473 105.914 185.035 104.191 184.652 102.332C184.324 100.418 183.887 98.668 183.34 97.082C182.848 95.4961 182.137 94.1836 181.207 93.1445C180.332 92.0508 179.074 91.5039 177.434 91.5039C176.832 91.5039 176.258 92.1055 175.711 93.3086C175.164 94.5117 174.672 96.043 174.234 97.9023C173.797 99.707 173.387 101.676 173.004 103.809C172.621 105.887 172.293 107.855 172.02 109.715C171.801 111.52 171.637 113.051 171.527 114.309C171.418 115.566 171.363 116.195 171.363 116.195C171.254 116.359 171.035 116.551 170.707 116.77C170.379 116.934 170.023 117.125 169.641 117.344C169.312 117.562 168.957 117.727 168.574 117.836C168.246 117.945 168 118 167.836 118C166.305 118 164.828 117.316 163.406 115.949C161.984 114.527 160.672 112.723 159.469 110.535C158.32 108.293 157.254 105.832 156.27 103.152C155.34 100.473 154.547 97.8477 153.891 95.2773C153.234 92.707 152.715 90.3828 152.332 88.3047C152.004 86.2266 151.84 84.6406 151.84 83.5469ZM275.871 114.473C276.145 113.16 276.828 112.094 277.922 111.273C279.07 110.398 280.355 109.605 281.777 108.895C283.254 108.184 284.785 107.527 286.371 106.926C287.957 106.27 289.406 105.586 290.719 104.875C292.086 104.164 293.207 103.344 294.082 102.414C294.957 101.43 295.395 100.254 295.395 98.8867C295.395 97.1367 294.93 95.6875 294 94.5391C293.125 93.3906 291.922 92.4062 290.391 91.5859C288.914 90.7656 287.219 90.082 285.305 89.5352C283.391 88.9883 281.422 88.4414 279.398 87.8945C277.43 87.293 275.488 86.6641 273.574 86.0078C271.66 85.2969 269.938 84.4219 268.406 83.3828C266.93 82.3438 265.727 81.0859 264.797 79.6094C263.922 78.1328 263.484 76.3008 263.484 74.1133C263.484 72.3086 263.84 70.6133 264.551 69.0273C265.316 67.3867 266.301 65.8555 267.504 64.4336C268.762 62.957 270.184 61.6172 271.77 60.4141C273.41 59.2109 275.105 58.1992 276.855 57.3789C278.66 56.5586 280.465 55.9297 282.27 55.4922C284.074 55 285.742 54.7539 287.273 54.7539H288.176C288.668 54.918 289.324 55.1914 290.145 55.5742C290.965 55.957 291.758 56.3398 292.523 56.7227C293.289 57.0508 293.945 57.3789 294.492 57.707C295.039 57.9805 295.312 58.1445 295.312 58.1992V60.0859C294.273 60.1953 292.934 60.4141 291.293 60.7422C289.652 61.0156 287.93 61.3984 286.125 61.8906C284.32 62.3828 282.488 63.0117 280.629 63.7773C278.77 64.4883 277.102 65.3359 275.625 66.3203C274.148 67.3047 272.945 68.4531 272.016 69.7656C271.086 71.0234 270.621 72.4727 270.621 74.1133C270.621 76.4648 271.441 78.3242 273.082 79.6914C274.723 81.0039 276.773 82.0977 279.234 82.9727C281.695 83.8477 284.375 84.6406 287.273 85.3516C290.227 86.0078 292.934 86.8281 295.395 87.8125C297.855 88.7422 299.906 90 301.547 91.5859C303.188 93.1172 304.008 95.1953 304.008 97.8203C304.008 99.2422 303.57 100.746 302.695 102.332C301.875 103.863 300.754 105.395 299.332 106.926C297.965 108.402 296.406 109.824 294.656 111.191C292.906 112.559 291.102 113.762 289.242 114.801C287.438 115.785 285.66 116.605 283.91 117.262C282.16 117.863 280.602 118.164 279.234 118.164C278.797 118.164 278.332 118.109 277.84 118C277.348 117.891 276.91 117.727 276.527 117.508C276.199 117.234 275.926 116.852 275.707 116.359C275.543 115.867 275.598 115.238 275.871 114.473ZM305.73 93.3086C305.73 91.0117 306.223 88.6055 307.207 86.0898C308.246 83.5742 309.613 81.3047 311.309 79.2812C313.004 77.2031 314.945 75.4805 317.133 74.1133C319.375 72.7461 321.727 72.0625 324.188 72.0625C325.445 72.0625 326.703 72.2812 327.961 72.7188C329.219 73.1562 330.34 73.7852 331.324 74.6055C332.363 75.4258 333.184 76.4102 333.785 77.5586C334.441 78.707 334.77 79.9922 334.77 81.4141C333.785 81.4141 332.883 81.3047 332.062 81.0859C331.297 80.8672 330.531 80.6211 329.766 80.3477C329 80.0195 328.234 79.7461 327.469 79.5273C326.758 79.3086 325.965 79.1992 325.09 79.1992C322.848 79.1992 321.016 79.7734 319.594 80.9219C318.227 82.0156 317.133 83.4102 316.312 85.1055C315.492 86.8008 314.918 88.6328 314.59 90.6016C314.316 92.5156 314.18 94.3203 314.18 96.0156C314.18 96.2891 314.18 96.8086 314.18 97.5742C314.234 98.3398 314.262 99.1602 314.262 100.035C314.316 100.855 314.344 101.648 314.344 102.414C314.398 103.18 314.453 103.699 314.508 103.973C315.109 105.285 315.684 106.297 316.23 107.008C316.832 107.719 317.461 108.266 318.117 108.648C318.773 108.977 319.484 109.195 320.25 109.305C321.016 109.359 321.918 109.387 322.957 109.387C324.379 109.387 325.609 109.168 326.648 108.73C327.742 108.293 328.754 107.773 329.684 107.172C330.613 106.57 331.488 105.914 332.309 105.203C333.129 104.438 333.977 103.754 334.852 103.152C335.781 102.496 336.766 101.977 337.805 101.594C338.898 101.156 340.129 100.938 341.496 100.938C341.496 103.617 341.004 105.996 340.02 108.074C339.09 110.152 337.75 111.93 336 113.406C334.305 114.883 332.281 116.031 329.93 116.852C327.633 117.617 325.117 118 322.383 118C319.812 118 317.488 117.125 315.41 115.375C313.387 113.625 311.637 111.492 310.16 108.977C308.738 106.406 307.645 103.699 306.879 100.855C306.113 98.0117 305.73 95.4961 305.73 93.3086ZM346.09 83.5469C346.09 83.0547 346.117 82.5625 346.172 82.0703C346.227 81.5234 346.336 81.0586 346.5 80.6758C346.664 80.2383 346.91 79.8828 347.238 79.6094C347.621 79.3359 348.141 79.1992 348.797 79.1992C349.344 79.1992 349.945 79.6367 350.602 80.5117C351.312 81.332 352.023 82.3984 352.734 83.7109C353.445 84.9688 354.129 86.3633 354.785 87.8945C355.496 89.4258 356.098 90.8477 356.59 92.1602C357.137 93.418 357.574 94.5117 357.902 95.4414C358.23 96.3711 358.422 96.8633 358.477 96.918C359.188 95.0039 359.98 92.9258 360.855 90.6836C361.73 88.4414 362.797 86.3633 364.055 84.4492C365.367 82.4805 366.898 80.8398 368.648 79.5273C370.453 78.2148 372.641 77.5586 375.211 77.5586C376.523 77.5586 377.754 77.7773 378.902 78.2148C380.105 78.5977 381.145 79.1992 382.02 80.0195C382.949 80.7852 383.688 81.7148 384.234 82.8086C384.781 83.9023 385.055 85.1602 385.055 86.582C385.055 87.7852 384.562 88.6328 383.578 89.125C382.648 89.6172 381.582 89.8633 380.379 89.8633H379.559L376.031 86.3359C375.922 86.3359 375.84 86.3086 375.785 86.2539C375.676 86.2539 375.566 86.2539 375.457 86.2539C375.402 86.1992 375.32 86.1719 375.211 86.1719C373.297 86.1719 371.793 86.7188 370.699 87.8125C369.66 88.8516 368.867 90.1641 368.32 91.75C367.773 93.2812 367.418 94.9219 367.254 96.6719C367.145 98.3672 367.09 99.9258 367.09 101.348C367.09 102.441 367.199 103.562 367.418 104.711C367.637 105.805 367.883 106.898 368.156 107.992C368.43 109.031 368.676 110.125 368.895 111.273C369.113 112.367 369.223 113.516 369.223 114.719C369.223 117.016 367.992 118.164 365.531 118.164C364.164 118.164 362.742 117.453 361.266 116.031C359.789 114.555 358.312 112.695 356.836 110.453C355.414 108.211 354.047 105.75 352.734 103.07C351.422 100.336 350.273 97.6836 349.289 95.1133C348.305 92.543 347.512 90.2188 346.91 88.1406C346.363 86.0625 346.09 84.5312 346.09 83.5469ZM391.453 87.2383C391.453 86.9102 391.453 86.3906 391.453 85.6797C391.508 84.9141 391.535 84.1211 391.535 83.3008C391.59 82.4805 391.617 81.6875 391.617 80.9219C391.672 80.1562 391.699 79.6094 391.699 79.2812C392.301 78.4062 393.066 77.6953 393.996 77.1484C394.98 76.6016 395.965 76.1641 396.949 75.8359C397.113 78.7891 397.578 81.9336 398.344 85.2695C399.109 88.6055 399.93 91.9688 400.805 95.3594C401.68 98.6953 402.445 102.004 403.102 105.285C403.812 108.566 404.168 111.629 404.168 114.473C404.168 116.934 402.91 118.164 400.395 118.164C398.863 118.164 397.578 117.535 396.539 116.277C395.5 115.02 394.652 113.434 393.996 111.52C393.395 109.551 392.902 107.391 392.52 105.039C392.137 102.633 391.863 100.281 391.699 97.9844C391.59 95.6875 391.508 93.582 391.453 91.668C391.453 89.7539 391.453 88.2773 391.453 87.2383ZM392.602 56.4766C393.641 56.9141 394.516 57.625 395.227 58.6094C395.938 59.5938 396.238 60.4961 396.129 61.3164C396.074 62.082 395.473 62.6289 394.324 62.957C393.176 63.2305 391.262 62.9023 388.582 61.9727C388.582 60.4961 388.855 59.2109 389.402 58.1172C390.004 57.0234 391.07 56.4766 392.602 56.4766ZM407.367 87.7305C407.367 82.4258 408.598 78.4883 411.059 75.918C413.52 73.3477 417.293 72.0625 422.379 72.0625C424.457 72.0625 426.59 72.2539 428.777 72.6367C431.02 73.0195 433.07 73.7031 434.93 74.6875C436.789 75.6172 438.293 76.9297 439.441 78.625C440.645 80.3203 441.246 82.5078 441.246 85.1875C441.246 88.1406 440.59 90.9297 439.277 93.5547C438.02 96.125 436.406 98.5586 434.438 100.855C432.523 103.098 430.391 105.203 428.039 107.172C425.742 109.086 423.582 110.918 421.559 112.668C421.449 112.887 421.34 113.352 421.23 114.062C421.176 114.719 421.148 115.156 421.148 115.375C421.148 117.18 421.668 118.984 422.707 120.789C423.801 122.648 424.977 124.508 426.234 126.367C427.492 128.281 428.641 130.25 429.68 132.273C430.719 134.297 431.238 136.402 431.238 138.59C431.238 139.902 430.965 140.668 430.418 140.887C429.871 141.16 428.723 141.297 426.973 141.297C425.879 140.859 424.785 139.82 423.691 138.18C422.652 136.594 421.586 134.625 420.492 132.273C419.453 129.922 418.414 127.27 417.375 124.316C416.391 121.418 415.434 118.465 414.504 115.457C413.629 112.395 412.781 109.387 411.961 106.434C411.195 103.426 410.512 100.664 409.91 98.1484C409.309 95.6328 408.762 93.4727 408.27 91.668C407.832 89.8086 407.531 88.4961 407.367 87.7305ZM414.34 88.4688C414.34 89.2891 414.395 90.4922 414.504 92.0781C414.613 93.6094 414.832 95.1406 415.16 96.6719C415.543 98.2031 416.09 99.543 416.801 100.691C417.512 101.785 418.496 102.332 419.754 102.332C421.449 102.332 423.145 101.758 424.84 100.609C426.59 99.4609 428.121 98.0117 429.434 96.2617C430.801 94.5117 431.895 92.6523 432.715 90.6836C433.59 88.6602 434.027 86.8281 434.027 85.1875C434.027 83.8203 433.699 82.7539 433.043 81.9883C432.387 81.168 431.539 80.5391 430.5 80.1016C429.516 79.6094 428.449 79.3086 427.301 79.1992C426.152 79.0352 425.059 78.9531 424.02 78.9531C420.902 78.9531 418.496 79.8008 416.801 81.4961C415.16 83.1367 414.34 85.4609 414.34 88.4688ZM444.281 76.6562C444.281 76.4922 444.309 76.3555 444.363 76.2461C444.363 76.1367 444.391 76 444.445 75.8359C444.664 75.5625 444.992 75.207 445.43 74.7695C445.867 74.332 446.141 74.1133 446.25 74.1133H462.738C462.738 73.5117 462.656 72.5547 462.492 71.2422C462.328 69.9297 462.164 68.4805 462 66.8945C461.891 65.3086 461.863 63.668 461.918 61.9727C461.973 60.2227 462.191 58.6641 462.574 57.2969C463.012 55.875 463.668 54.7266 464.543 53.8516C465.473 52.9219 466.758 52.457 468.398 52.457C468.398 57.9805 468.781 62.4102 469.547 65.7461C470.312 69.082 471.324 71.6523 472.582 73.457C473.895 75.2617 475.371 76.4375 477.012 76.9844C478.652 77.5312 480.32 77.7773 482.016 77.7227C483.766 77.6133 485.461 77.3398 487.102 76.9023C488.742 76.4648 490.191 76.1641 491.449 76C492.762 75.8359 493.801 75.9727 494.566 76.4102C495.332 76.793 495.715 77.75 495.715 79.2812C495.715 80.4297 495.441 81.25 494.895 81.7422C494.402 82.2344 493.418 82.6172 491.941 82.8906C491.504 82.9453 490.766 83.0547 489.727 83.2188C488.742 83.3281 487.621 83.4375 486.363 83.5469C485.105 83.6562 483.766 83.793 482.344 83.957C480.922 84.0664 479.582 84.1758 478.324 84.2852C477.066 84.3945 475.918 84.4766 474.879 84.5312C473.84 84.5312 473.074 84.5312 472.582 84.5312C472.582 84.8047 472.555 85.2695 472.5 85.9258C472.445 86.582 472.418 87.0195 472.418 87.2383C472.418 89.6445 472.801 91.9961 473.566 94.293C474.332 96.5352 475.152 98.7773 476.027 101.02C476.957 103.262 477.805 105.504 478.57 107.746C479.336 109.988 479.719 112.312 479.719 114.719C479.719 115.156 479.664 115.621 479.555 116.113C479.5 116.551 479.336 116.961 479.062 117.344C478.844 117.672 478.488 117.918 477.996 118.082C477.559 118.301 476.93 118.273 476.109 118C474.031 117.453 472.473 116.277 471.434 114.473C470.449 112.668 469.711 110.535 469.219 108.074C468.727 105.559 468.398 102.906 468.234 100.117C468.07 97.3281 467.797 94.7305 467.414 92.3242C467.086 89.8633 466.539 87.7852 465.773 86.0898C465.008 84.3398 463.777 83.2734 462.082 82.8906L446.25 79.2812C446.031 79.2812 445.703 79.0625 445.266 78.625C444.828 78.1328 444.555 77.7773 444.445 77.5586C444.391 77.4492 444.363 77.3125 444.363 77.1484C444.309 77.0391 444.281 76.875 444.281 76.6562Z" fill="black"/>
<path d="M14.4727 178.973C13.9727 179.684 13.1875 180.238 12.1172 180.637C11.0547 181.035 9.86328 181.234 8.54297 181.234C7.20703 181.234 6.01953 180.914 4.98047 180.273C3.94141 179.633 3.13672 178.727 2.56641 177.555C1.99609 176.383 1.70703 175.039 1.69922 173.523V171.367C1.69922 169 2.29688 167.133 3.49219 165.766C4.6875 164.391 6.29297 163.703 8.30859 163.703C10.0664 163.703 11.4805 164.152 12.5508 165.051C13.6211 165.941 14.2578 167.172 14.4609 168.742H13.0195C12.8086 167.492 12.2969 166.547 11.4844 165.906C10.6797 165.258 9.625 164.934 8.32031 164.934C6.72656 164.934 5.46484 165.5 4.53516 166.633C3.60547 167.766 3.14062 169.363 3.14062 171.426V173.441C3.14062 174.738 3.35938 175.887 3.79688 176.887C4.24219 177.879 4.875 178.648 5.69531 179.195C6.52344 179.742 7.47266 180.016 8.54297 180.016C9.78516 180.016 10.8516 179.82 11.7422 179.43C12.3203 179.172 12.75 178.871 13.0312 178.527V174.121H8.44922V172.902H14.4727V178.973ZM19.8047 181H18.3984V163H19.8047V181ZM22.8516 174.473C22.8516 173.254 23.0859 172.156 23.5547 171.18C24.0312 170.203 24.6992 169.445 25.5586 168.906C26.4258 168.359 27.4062 168.086 28.5 168.086C30.1875 168.086 31.5547 168.68 32.6016 169.867C33.6484 171.047 34.1719 172.613 34.1719 174.566V174.859C34.1719 176.086 33.9336 177.191 33.457 178.176C32.9883 179.152 32.3242 179.906 31.4648 180.438C30.6055 180.969 29.625 181.234 28.5234 181.234C26.8438 181.234 25.4766 180.645 24.4219 179.465C23.375 178.277 22.8516 176.707 22.8516 174.754V174.473ZM24.2578 174.859C24.2578 176.375 24.6484 177.621 25.4297 178.598C26.2188 179.566 27.25 180.051 28.5234 180.051C29.7891 180.051 30.8125 179.566 31.5938 178.598C32.3828 177.621 32.7773 176.336 32.7773 174.742V174.473C32.7773 173.504 32.5977 172.617 32.2383 171.812C31.8789 171.008 31.375 170.387 30.7266 169.949C30.0781 169.504 29.3359 169.281 28.5 169.281C27.25 169.281 26.2305 169.773 25.4414 170.758C24.6523 171.734 24.2578 173.016 24.2578 174.602V174.859ZM42.9375 169.516C42.6406 169.461 42.3242 169.434 41.9883 169.434C41.1133 169.434 40.3711 169.68 39.7617 170.172C39.1602 170.656 38.7305 171.363 38.4727 172.293V181H37.0781V168.32H38.4492L38.4727 170.336C39.2148 168.836 40.4062 168.086 42.0469 168.086C42.4375 168.086 42.7461 168.137 42.9727 168.238L42.9375 169.516ZM46.7344 181H45.3281V168.32H46.7344V181ZM45.082 164.652C45.082 164.387 45.168 164.164 45.3398 163.984C45.5117 163.797 45.7461 163.703 46.043 163.703C46.3398 163.703 46.5742 163.797 46.7461 163.984C46.9258 164.164 47.0156 164.387 47.0156 164.652C47.0156 164.918 46.9258 165.141 46.7461 165.32C46.5742 165.5 46.3398 165.59 46.043 165.59C45.7461 165.59 45.5117 165.5 45.3398 165.32C45.168 165.141 45.082 164.918 45.082 164.652ZM58.5586 181C58.418 180.602 58.3281 180.012 58.2891 179.23C57.7969 179.871 57.168 180.367 56.4023 180.719C55.6445 181.062 54.8398 181.234 53.9883 181.234C52.7695 181.234 51.7812 180.895 51.0234 180.215C50.2734 179.535 49.8984 178.676 49.8984 177.637C49.8984 176.402 50.4102 175.426 51.4336 174.707C52.4648 173.988 53.8984 173.629 55.7344 173.629H58.2773V172.188C58.2773 171.281 57.9961 170.57 57.4336 170.055C56.8789 169.531 56.0664 169.27 54.9961 169.27C54.0195 169.27 53.2109 169.52 52.5703 170.02C51.9297 170.52 51.6094 171.121 51.6094 171.824L50.2031 171.812C50.2031 170.805 50.6719 169.934 51.6094 169.199C52.5469 168.457 53.6992 168.086 55.0664 168.086C56.4805 168.086 57.5938 168.441 58.4062 169.152C59.2266 169.855 59.6484 170.84 59.6719 172.105V178.105C59.6719 179.332 59.8008 180.25 60.0586 180.859V181H58.5586ZM54.1523 179.992C55.0898 179.992 55.9258 179.766 56.6602 179.312C57.4023 178.859 57.9414 178.254 58.2773 177.496V174.707H55.7695C54.3711 174.723 53.2773 174.98 52.4883 175.48C51.6992 175.973 51.3047 176.652 51.3047 177.52C51.3047 178.23 51.5664 178.82 52.0898 179.289C52.6211 179.758 53.3086 179.992 54.1523 179.992ZM82.2305 181H80.7773V172.82H71.0273V181H69.5859V163.938H71.0273V171.602H80.7773V163.938H82.2305V181ZM94.2539 181C94.1133 180.602 94.0234 180.012 93.9844 179.23C93.4922 179.871 92.8633 180.367 92.0977 180.719C91.3398 181.062 90.5352 181.234 89.6836 181.234C88.4648 181.234 87.4766 180.895 86.7188 180.215C85.9688 179.535 85.5938 178.676 85.5938 177.637C85.5938 176.402 86.1055 175.426 87.1289 174.707C88.1602 173.988 89.5938 173.629 91.4297 173.629H93.9727V172.188C93.9727 171.281 93.6914 170.57 93.1289 170.055C92.5742 169.531 91.7617 169.27 90.6914 169.27C89.7148 169.27 88.9062 169.52 88.2656 170.02C87.625 170.52 87.3047 171.121 87.3047 171.824L85.8984 171.812C85.8984 170.805 86.3672 169.934 87.3047 169.199C88.2422 168.457 89.3945 168.086 90.7617 168.086C92.1758 168.086 93.2891 168.441 94.1016 169.152C94.9219 169.855 95.3438 170.84 95.3672 172.105V178.105C95.3672 179.332 95.4961 180.25 95.7539 180.859V181H94.2539ZM89.8477 179.992C90.7852 179.992 91.6211 179.766 92.3555 179.312C93.0977 178.859 93.6367 178.254 93.9727 177.496V174.707H91.4648C90.0664 174.723 88.9727 174.98 88.1836 175.48C87.3945 175.973 87 176.652 87 177.52C87 178.23 87.2617 178.82 87.7852 179.289C88.3164 179.758 89.0039 179.992 89.8477 179.992ZM100.688 181H99.2812V163H100.688V181ZM106.078 181H104.672V163H106.078V181ZM114.809 181.234C113.73 181.234 112.754 180.969 111.879 180.438C111.012 179.906 110.336 179.168 109.852 178.223C109.367 177.27 109.125 176.203 109.125 175.023V174.52C109.125 173.301 109.359 172.203 109.828 171.227C110.305 170.25 110.965 169.484 111.809 168.93C112.652 168.367 113.566 168.086 114.551 168.086C116.09 168.086 117.309 168.613 118.207 169.668C119.113 170.715 119.566 172.148 119.566 173.969V174.754H110.52V175.023C110.52 176.461 110.93 177.66 111.75 178.621C112.578 179.574 113.617 180.051 114.867 180.051C115.617 180.051 116.277 179.914 116.848 179.641C117.426 179.367 117.949 178.93 118.418 178.328L119.297 178.996C118.266 180.488 116.77 181.234 114.809 181.234ZM114.551 169.281C113.496 169.281 112.605 169.668 111.879 170.441C111.16 171.215 110.723 172.254 110.566 173.559H118.172V173.406C118.133 172.188 117.785 171.195 117.129 170.43C116.473 169.664 115.613 169.281 114.551 169.281ZM123.867 181H122.461V163H123.867V181ZM135.844 179.395C135 180.621 133.652 181.234 131.801 181.234C130.449 181.234 129.422 180.844 128.719 180.062C128.016 179.273 127.656 178.109 127.641 176.57V168.32H129.035V176.395C129.035 178.809 130.012 180.016 131.965 180.016C133.996 180.016 135.281 179.176 135.82 177.496V168.32H137.227V181H135.867L135.844 179.395ZM142.395 168.32V182.512C142.395 183.684 142.113 184.578 141.551 185.195C140.988 185.812 140.16 186.121 139.066 186.121C138.645 186.121 138.234 186.047 137.836 185.898L137.859 184.738C138.203 184.84 138.555 184.891 138.914 184.891C140.305 184.891 141 184.09 141 182.488V168.32H142.395ZM141.703 163.703C142.008 163.703 142.246 163.797 142.418 163.984C142.59 164.164 142.676 164.387 142.676 164.652C142.676 164.918 142.59 165.141 142.418 165.32C142.246 165.5 142.008 165.59 141.703 165.59C141.406 165.59 141.172 165.5 141 165.32C140.836 165.141 140.754 164.918 140.754 164.652C140.754 164.387 140.836 164.164 141 163.984C141.172 163.797 141.406 163.703 141.703 163.703ZM154.371 181C154.23 180.602 154.141 180.012 154.102 179.23C153.609 179.871 152.98 180.367 152.215 180.719C151.457 181.062 150.652 181.234 149.801 181.234C148.582 181.234 147.594 180.895 146.836 180.215C146.086 179.535 145.711 178.676 145.711 177.637C145.711 176.402 146.223 175.426 147.246 174.707C148.277 173.988 149.711 173.629 151.547 173.629H154.09V172.188C154.09 171.281 153.809 170.57 153.246 170.055C152.691 169.531 151.879 169.27 150.809 169.27C149.832 169.27 149.023 169.52 148.383 170.02C147.742 170.52 147.422 171.121 147.422 171.824L146.016 171.812C146.016 170.805 146.484 169.934 147.422 169.199C148.359 168.457 149.512 168.086 150.879 168.086C152.293 168.086 153.406 168.441 154.219 169.152C155.039 169.855 155.461 170.84 155.484 172.105V178.105C155.484 179.332 155.613 180.25 155.871 180.859V181H154.371ZM149.965 179.992C150.902 179.992 151.738 179.766 152.473 179.312C153.215 178.859 153.754 178.254 154.09 177.496V174.707H151.582C150.184 174.723 149.09 174.98 148.301 175.48C147.512 175.973 147.117 176.652 147.117 177.52C147.117 178.23 147.379 178.82 147.902 179.289C148.434 179.758 149.121 179.992 149.965 179.992ZM160.629 170.465C161.09 169.707 161.68 169.121 162.398 168.707C163.117 168.293 163.902 168.086 164.754 168.086C166.113 168.086 167.125 168.469 167.789 169.234C168.453 170 168.789 171.148 168.797 172.68V181H167.402V172.668C167.395 171.535 167.152 170.691 166.676 170.137C166.207 169.582 165.453 169.305 164.414 169.305C163.547 169.305 162.777 169.578 162.105 170.125C161.441 170.664 160.949 171.395 160.629 172.316V181H159.234V163H160.629V170.465Z" fill="black"/>
</svg>
