<svg width="500" height="153" viewBox="0 0 500 153" fill="none" xmlns="http://www.w3.org/2000/svg">
<path d="M12.576 29.872L4.416 28.624V22.672H35.136V28.624L26.688 29.872V87.28L35.136 88.336V94H4.416V88.24L12.576 87.28V29.872ZM65.514 79.024C65.514 73.2 68.426 68.816 74.25 65.872C80.138 62.928 87.722 61.424 97.002 61.36V59.152C97.002 56.528 96.714 54.48 96.138 53.008C95.626 51.536 94.634 50.448 93.162 49.744C91.754 48.976 89.674 48.592 86.922 48.592C83.786 48.592 80.97 49.008 78.474 49.84C75.978 50.608 73.386 51.632 70.698 52.912L67.722 46.768C68.682 45.936 70.282 44.944 72.522 43.792C74.826 42.64 77.546 41.648 80.682 40.816C83.818 39.92 87.05 39.472 90.378 39.472C95.306 39.472 99.146 40.112 101.898 41.392C104.714 42.672 106.73 44.72 107.946 47.536C109.162 50.352 109.77 54.128 109.77 58.864V88.24H114.954V93.616C113.674 93.936 111.85 94.256 109.482 94.576C107.114 94.896 105.034 95.056 103.242 95.056C101.066 95.056 99.594 94.736 98.826 94.096C98.122 93.456 97.77 92.144 97.77 90.16V87.568C96.042 89.488 93.802 91.216 91.05 92.752C88.298 94.288 85.194 95.056 81.738 95.056C78.794 95.056 76.074 94.448 73.578 93.232C71.146 91.952 69.194 90.128 67.722 87.76C66.25 85.328 65.514 82.416 65.514 79.024ZM87.882 87.088C89.226 87.088 90.762 86.704 92.49 85.936C94.218 85.104 95.722 84.112 97.002 82.96V67.216C91.242 67.216 86.922 68.208 84.042 70.192C81.226 72.112 79.818 74.608 79.818 77.68C79.818 80.752 80.522 83.088 81.93 84.688C83.402 86.288 85.386 87.088 87.882 87.088ZM120.945 88.24L126.321 87.376V49.744L120.177 48.016V41.392L136.113 39.376L137.265 40.144L138.705 43.312V47.344C140.817 45.296 143.825 43.504 147.729 41.968C151.697 40.368 155.121 39.568 158.001 39.568C161.457 39.568 164.241 40.144 166.353 41.296C168.529 42.448 170.161 44.24 171.249 46.672C173.361 44.752 176.145 43.088 179.601 41.68C183.057 40.272 186.449 39.568 189.777 39.568C195.473 39.568 199.505 41.232 201.873 44.56C204.241 47.888 205.425 53.328 205.425 60.88V87.376L211.665 88.24V94H186.801V88.24L191.793 87.376V61.264C191.793 56.272 191.185 52.784 189.969 50.8C188.817 48.752 186.577 47.728 183.249 47.728C181.457 47.728 179.601 48.144 177.681 48.976C175.825 49.744 174.161 50.704 172.689 51.856C173.137 54.288 173.361 57.328 173.361 60.976V87.376L179.313 88.24V94H154.257V88.24L159.537 87.376V60.976C159.537 57.648 159.313 55.056 158.865 53.2C158.481 51.28 157.713 49.904 156.561 49.072C155.409 48.176 153.745 47.728 151.569 47.728C149.521 47.728 147.473 48.208 145.425 49.168C143.441 50.064 141.649 51.152 140.049 52.432V87.376L145.713 88.24V94H120.945V88.24ZM265.137 95.056C261.681 95.056 258.577 94.768 255.825 94.192C253.073 93.616 250.001 92.848 246.609 91.888C244.369 91.248 242.865 90.896 242.097 90.832L242.961 73.072H250.737L252.849 85.456C253.681 86.352 255.153 87.152 257.265 87.856C259.441 88.56 261.905 88.912 264.657 88.912C268.945 88.912 272.145 87.984 274.257 86.128C276.433 84.208 277.521 81.552 277.521 78.16C277.521 75.92 276.881 74 275.601 72.4C274.321 70.736 272.561 69.264 270.321 67.984C268.081 66.64 265.009 65.104 261.105 63.376C255.793 60.944 251.377 58.064 247.857 54.736C244.401 51.344 242.673 46.768 242.673 41.008C242.673 37.424 243.601 34.192 245.457 31.312C247.313 28.368 250.065 26.064 253.713 24.4C257.425 22.672 261.937 21.808 267.249 21.808C270.385 21.808 273.137 22.032 275.505 22.48C277.937 22.928 280.561 23.536 283.377 24.304C285.041 24.752 286.289 25.04 287.121 25.168L286.545 41.968H278.865L276.849 30.16C276.273 29.584 275.121 29.04 273.393 28.528C271.665 27.952 269.745 27.664 267.633 27.664C263.793 27.664 260.881 28.56 258.897 30.352C256.977 32.08 256.017 34.416 256.017 37.36C256.017 39.728 256.721 41.776 258.129 43.504C259.601 45.232 261.361 46.704 263.409 47.92C265.457 49.072 268.689 50.736 273.105 52.912C276.689 54.64 279.761 56.336 282.321 58C284.881 59.664 287.089 61.84 288.945 64.528C290.801 67.152 291.729 70.256 291.729 73.84C291.729 77.36 290.833 80.72 289.041 83.92C287.313 87.12 284.433 89.776 280.401 91.888C276.433 94 271.345 95.056 265.137 95.056ZM322.981 95.056C314.533 95.056 308.229 92.592 304.069 87.664C299.973 82.672 297.925 75.888 297.925 67.312C297.925 61.552 298.981 56.56 301.093 52.336C303.269 48.112 306.309 44.88 310.213 42.64C314.117 40.4 318.629 39.28 323.749 39.28C330.149 39.28 335.077 40.976 338.533 44.368C341.989 47.696 343.781 52.464 343.909 58.672C343.909 62.896 343.653 66.032 343.141 68.08H311.941C312.197 73.904 313.573 78.448 316.069 81.712C318.565 84.912 322.117 86.512 326.725 86.512C329.221 86.512 331.781 86.096 334.405 85.264C337.093 84.432 339.205 83.44 340.741 82.288L343.141 87.568C341.413 89.424 338.597 91.152 334.693 92.752C330.853 94.288 326.949 95.056 322.981 95.056ZM330.469 62.32C330.597 60.528 330.661 59.152 330.661 58.192C330.661 49.68 327.813 45.424 322.117 45.424C318.981 45.424 316.549 46.672 314.821 49.168C313.093 51.664 312.133 56.048 311.941 62.32H330.469ZM351.57 88.336L357.906 87.568V49.744L351.762 48.016V41.392L366.642 39.376H366.93L369.33 41.296V43.408L369.042 51.184H369.33C369.778 49.904 370.834 48.336 372.498 46.48C374.162 44.56 376.242 42.896 378.738 41.488C381.298 40.016 384.05 39.28 386.994 39.28C388.402 39.28 389.618 39.472 390.642 39.856V54.256C388.722 52.912 386.386 52.24 383.634 52.24C378.962 52.24 374.898 53.488 371.442 55.984V87.472L382.578 88.336V94H351.57V88.336ZM408.182 31.888C405.878 31.888 404.054 31.216 402.71 29.872C401.366 28.528 400.694 26.8 400.694 24.688C400.694 22.256 401.462 20.24 402.998 18.64C404.534 17.04 406.582 16.24 409.142 16.24C411.702 16.24 413.654 16.944 414.998 18.352C416.342 19.696 417.014 21.392 417.014 23.44C417.014 26 416.246 28.048 414.71 29.584C413.174 31.12 411.03 31.888 408.278 31.888H408.182ZM403.094 49.744L396.278 47.92V41.488L413.846 39.376H414.038L416.726 41.296V87.472L423.158 88.24V94H396.374V88.24L403.094 87.376V49.744ZM436.663 48.112H428.599V42.736L436.663 40.816V36.592C436.663 32.432 437.751 28.624 439.927 25.168C442.167 21.712 445.143 18.992 448.855 17.008C452.567 14.96 456.503 13.936 460.663 13.936C462.839 13.936 464.887 14.256 466.807 14.896V27.184C466.167 26.544 464.887 25.904 462.967 25.264C461.111 24.624 459.159 24.304 457.111 24.304C454.615 24.304 452.823 24.944 451.735 26.224C450.711 27.44 450.199 29.552 450.199 32.56V40.72H462.391V48.112H450.199V87.472L460.279 88.24V94H429.079V88.24L436.663 87.376V48.112Z" fill="black"/>
<path d="M4.06641 128.938L10.3594 143.996L16.6758 128.938H18.5977V146H17.1562V138.57L17.2734 130.953L10.9219 146H9.80859L3.48047 131.012L3.59766 138.523V146H2.15625V128.938H4.06641ZM27.5039 146.234C26.4258 146.234 25.4492 145.969 24.5742 145.438C23.707 144.906 23.0312 144.168 22.5469 143.223C22.0625 142.27 21.8203 141.203 21.8203 140.023V139.52C21.8203 138.301 22.0547 137.203 22.5234 136.227C23 135.25 23.6602 134.484 24.5039 133.93C25.3477 133.367 26.2617 133.086 27.2461 133.086C28.7852 133.086 30.0039 133.613 30.9023 134.668C31.8086 135.715 32.2617 137.148 32.2617 138.969V139.754H23.2148V140.023C23.2148 141.461 23.625 142.66 24.4453 143.621C25.2734 144.574 26.3125 145.051 27.5625 145.051C28.3125 145.051 28.9727 144.914 29.543 144.641C30.1211 144.367 30.6445 143.93 31.1133 143.328L31.9922 143.996C30.9609 145.488 29.4648 146.234 27.5039 146.234ZM27.2461 134.281C26.1914 134.281 25.3008 134.668 24.5742 135.441C23.8555 136.215 23.418 137.254 23.2617 138.559H30.8672V138.406C30.8281 137.188 30.4805 136.195 29.8242 135.43C29.168 134.664 28.3086 134.281 27.2461 134.281ZM40.8516 134.516C40.5547 134.461 40.2383 134.434 39.9023 134.434C39.0273 134.434 38.2852 134.68 37.6758 135.172C37.0742 135.656 36.6445 136.363 36.3867 137.293V146H34.9922V133.32H36.3633L36.3867 135.336C37.1289 133.836 38.3203 133.086 39.9609 133.086C40.3516 133.086 40.6602 133.137 40.8867 133.238L40.8516 134.516ZM48.9375 134.516C48.6406 134.461 48.3242 134.434 47.9883 134.434C47.1133 134.434 46.3711 134.68 45.7617 135.172C45.1602 135.656 44.7305 136.363 44.4727 137.293V146H43.0781V133.32H44.4492L44.4727 135.336C45.2148 133.836 46.4062 133.086 48.0469 133.086C48.4375 133.086 48.7461 133.137 48.9727 133.238L48.9375 134.516ZM52.7344 146H51.3281V133.32H52.7344V146ZM51.082 129.652C51.082 129.387 51.168 129.164 51.3398 128.984C51.5117 128.797 51.7461 128.703 52.043 128.703C52.3398 128.703 52.5742 128.797 52.7461 128.984C52.9258 129.164 53.0156 129.387 53.0156 129.652C53.0156 129.918 52.9258 130.141 52.7461 130.32C52.5742 130.5 52.3398 130.59 52.043 130.59C51.7461 130.59 51.5117 130.5 51.3398 130.32C51.168 130.141 51.082 129.918 51.082 129.652ZM59.5898 143.082L59.8008 144.172L60.082 143.023L63.1289 133.32H64.3242L67.3359 142.941L67.6641 144.277L67.9336 143.047L70.5352 133.32H71.9883L68.2969 146H67.1016L63.8438 135.945L63.6914 135.254L63.5391 135.957L60.3398 146H59.1445L55.4648 133.32H56.9062L59.5898 143.082ZM79.5586 146.234C78.4805 146.234 77.5039 145.969 76.6289 145.438C75.7617 144.906 75.0859 144.168 74.6016 143.223C74.1172 142.27 73.875 141.203 73.875 140.023V139.52C73.875 138.301 74.1094 137.203 74.5781 136.227C75.0547 135.25 75.7148 134.484 76.5586 133.93C77.4023 133.367 78.3164 133.086 79.3008 133.086C80.8398 133.086 82.0586 133.613 82.957 134.668C83.8633 135.715 84.3164 137.148 84.3164 138.969V139.754H75.2695V140.023C75.2695 141.461 75.6797 142.66 76.5 143.621C77.3281 144.574 78.3672 145.051 79.6172 145.051C80.3672 145.051 81.0273 144.914 81.5977 144.641C82.1758 144.367 82.6992 143.93 83.168 143.328L84.0469 143.996C83.0156 145.488 81.5195 146.234 79.5586 146.234ZM79.3008 134.281C78.2461 134.281 77.3555 134.668 76.6289 135.441C75.9102 136.215 75.4727 137.254 75.3164 138.559H82.9219V138.406C82.8828 137.188 82.5352 136.195 81.8789 135.43C81.2227 134.664 80.3633 134.281 79.3008 134.281ZM95.0508 146C94.9102 145.602 94.8203 145.012 94.7812 144.23C94.2891 144.871 93.6602 145.367 92.8945 145.719C92.1367 146.062 91.332 146.234 90.4805 146.234C89.2617 146.234 88.2734 145.895 87.5156 145.215C86.7656 144.535 86.3906 143.676 86.3906 142.637C86.3906 141.402 86.9023 140.426 87.9258 139.707C88.957 138.988 90.3906 138.629 92.2266 138.629H94.7695V137.188C94.7695 136.281 94.4883 135.57 93.9258 135.055C93.3711 134.531 92.5586 134.27 91.4883 134.27C90.5117 134.27 89.7031 134.52 89.0625 135.02C88.4219 135.52 88.1016 136.121 88.1016 136.824L86.6953 136.812C86.6953 135.805 87.1641 134.934 88.1016 134.199C89.0391 133.457 90.1914 133.086 91.5586 133.086C92.9727 133.086 94.0859 133.441 94.8984 134.152C95.7188 134.855 96.1406 135.84 96.1641 137.105V143.105C96.1641 144.332 96.293 145.25 96.5508 145.859V146H95.0508ZM90.6445 144.992C91.582 144.992 92.418 144.766 93.1523 144.312C93.8945 143.859 94.4336 143.254 94.7695 142.496V139.707H92.2617C90.8633 139.723 89.7695 139.98 88.9805 140.48C88.1914 140.973 87.7969 141.652 87.7969 142.52C87.7969 143.23 88.0586 143.82 88.582 144.289C89.1133 144.758 89.8008 144.992 90.6445 144.992ZM102.094 130.074V133.32H104.719V134.469H102.094V142.918C102.094 143.621 102.219 144.145 102.469 144.488C102.727 144.832 103.152 145.004 103.746 145.004C103.98 145.004 104.359 144.965 104.883 144.887L104.941 146.035C104.574 146.168 104.074 146.234 103.441 146.234C102.48 146.234 101.781 145.957 101.344 145.402C100.906 144.84 100.688 144.016 100.688 142.93V134.469H98.3555V133.32H100.688V130.074H102.094ZM109.02 135.465C109.48 134.707 110.07 134.121 110.789 133.707C111.508 133.293 112.293 133.086 113.145 133.086C114.504 133.086 115.516 133.469 116.18 134.234C116.844 135 117.18 136.148 117.188 137.68V146H115.793V137.668C115.785 136.535 115.543 135.691 115.066 135.137C114.598 134.582 113.844 134.305 112.805 134.305C111.938 134.305 111.168 134.578 110.496 135.125C109.832 135.664 109.34 136.395 109.02 137.316V146H107.625V128H109.02V135.465ZM125.707 146.234C124.629 146.234 123.652 145.969 122.777 145.438C121.91 144.906 121.234 144.168 120.75 143.223C120.266 142.27 120.023 141.203 120.023 140.023V139.52C120.023 138.301 120.258 137.203 120.727 136.227C121.203 135.25 121.863 134.484 122.707 133.93C123.551 133.367 124.465 133.086 125.449 133.086C126.988 133.086 128.207 133.613 129.105 134.668C130.012 135.715 130.465 137.148 130.465 138.969V139.754H121.418V140.023C121.418 141.461 121.828 142.66 122.648 143.621C123.477 144.574 124.516 145.051 125.766 145.051C126.516 145.051 127.176 144.914 127.746 144.641C128.324 144.367 128.848 143.93 129.316 143.328L130.195 143.996C129.164 145.488 127.668 146.234 125.707 146.234ZM125.449 134.281C124.395 134.281 123.504 134.668 122.777 135.441C122.059 136.215 121.621 137.254 121.465 138.559H129.07V138.406C129.031 137.188 128.684 136.195 128.027 135.43C127.371 134.664 126.512 134.281 125.449 134.281ZM139.055 134.516C138.758 134.461 138.441 134.434 138.105 134.434C137.23 134.434 136.488 134.68 135.879 135.172C135.277 135.656 134.848 136.363 134.59 137.293V146H133.195V133.32H134.566L134.59 135.336C135.332 133.836 136.523 133.086 138.164 133.086C138.555 133.086 138.863 133.137 139.09 133.238L139.055 134.516Z" fill="black"/>
<circle cx="247" cy="83" r="12.5" stroke="#FC0D1B" stroke-opacity="0.85" stroke-width="3"/>
<circle cx="107" cy="94" r="12.5" stroke="#FC0D1B" stroke-opacity="0.85" stroke-width="3"/>
<circle cx="362" cy="50" r="12.5" stroke="#FC0D1B" stroke-opacity="0.85" stroke-width="3"/>
<circle cx="457" cy="84" r="12.5" stroke="#FC0D1B" stroke-opacity="0.85" stroke-width="3"/>
</svg>
